<?xml version="1.0" encoding="UTF-8" standalone="no"?>
<svg
   xmlns:dc="http://purl.org/dc/elements/1.1/"
   xmlns:cc="http://creativecommons.org/ns#"
   xmlns:rdf="http://www.w3.org/1999/02/22-rdf-syntax-ns#"
   xmlns:svg="http://www.w3.org/2000/svg"
   xmlns="http://www.w3.org/2000/svg"
   xmlns:sodipodi="http://sodipodi.sourceforge.net/DTD/sodipodi-0.dtd"
   xmlns:inkscape="http://www.inkscape.org/namespaces/inkscape"
   inkscape:export-ydpi="459.89999"
   inkscape:export-xdpi="459.89999"
   inkscape:export-filename="/Users/richardhaeser/stack/richardhaeser.com/Logos/svg/logo-richardhaeser-sign.png"
   sodipodi:docname="logo-richardhaeser-sign.svg"
   inkscape:version="1.0 (4035a4f, 2020-05-01)"
   id="svg1271"
   version="1.1"
   viewBox="0 0 27.986059 28.286318"
   height="28.286318mm"
   width="27.986059mm">
  <defs
     id="defs1265">
    <rect
       id="rect60-8"
       height="48.716976"
       width="93.374207"
       y="269.56729"
       x="189.99622" />
  </defs>
  <sodipodi:namedview
     inkscape:pagecheckerboard="true"
     inkscape:snap-page="false"
     inkscape:window-maximized="0"
     inkscape:window-y="210"
     inkscape:window-x="1073"
     inkscape:window-height="954"
     inkscape:window-width="1252"
     showgrid="false"
     inkscape:document-rotation="0"
     inkscape:current-layer="layer1"
     inkscape:document-units="mm"
     inkscape:cy="79.698345"
     inkscape:cx="-13.572751"
     inkscape:zoom="4.0163665"
     inkscape:pageshadow="2"
     inkscape:pageopacity="0.0"
     borderopacity="1.0"
     bordercolor="#666666"
     pagecolor="#ffffff"
     id="base" />
  <metadata
     id="metadata1268">
    <rdf:RDF>
      <cc:Work
         rdf:about="">
        <dc:format>image/svg+xml</dc:format>
        <dc:type
           rdf:resource="http://purl.org/dc/dcmitype/StillImage" />
        <dc:title></dc:title>
      </cc:Work>
    </rdf:RDF>
  </metadata>
  <g
     transform="translate(-150.04863,-82.618744)"
     id="layer1"
     inkscape:groupmode="layer"
     inkscape:label="Layer 1">
    <path
       d="m 171.83378,83.291316 c -0.51428,-0.0135 -1.05552,0.0831 -1.59835,0.30221 l -0.99735,0.40227 1.91719,-0.47732 c 0.28478,-0.0709 0.56459,-0.11175 0.83664,-0.12409 0.24009,-0.0109 0.47378,2.6e-4 0.6997,0.032 -0.27419,-0.0786 -0.56072,-0.1273 -0.85783,-0.13509 z m 3.90726,5.86051 0.68988,9.70464 c 0.16162,2.272234 -1.54225,4.558574 -3.82044,5.126014 l -17.49092,4.35648 c -0.62987,0.15689 -1.23348,0.16072 -1.78387,0.043 0.66619,1.92167 2.66365,2.80789 4.68447,1.99237 l 16.6703,-6.72711 c 2.1713,-0.87625 3.52137,-3.37465 3.02668,-5.601334 z"
       style="display:inline;fill:#c72424;fill-opacity:1;stroke-width:0.145208"
       id="rect900-8" />
    <path
       id="rect900-86"
       style="display:inline;fill:#002d96;fill-opacity:1;stroke-width:0.147571"
       d="m 172.36295,82.885956 c -0.27205,0.0128 -0.55187,0.0549 -0.83664,0.12816 l -17.49092,4.49947 c -2.27819,0.58607 -3.98206,2.94744 -3.82044,5.29425 l 0.87178,12.663314 c 0.16162,2.34681 2.12568,3.76417 4.40387,3.1781 l 17.49092,-4.49947 c 2.27819,-0.58606 3.98205,-2.94744 3.82044,-5.294254 l -0.87179,-12.66331 c -0.14141,-2.05345 -1.66285,-3.39547 -3.56722,-3.30626 z m -15.96182,9.62319 h 3.51348 c 1.78859,0 2.74144,1.19577 2.74144,2.49752 -0.0106,0.96309 -0.29646,1.82003 -1.71462,2.32803 l 2.03191,2.45566 v 0.12661 h -1.83089 l -1.89446,-2.43396 h -1.19579 v 2.43396 h -1.65107 z m 7.66879,0.0103 h 1.65106 v 2.96313 h 3.31246 v -2.96313 h 1.62987 v 7.40833 h -1.62987 v -2.9316 h -3.31246 v 2.9316 h -1.65106 z m -6.01772,1.40767 v 2.15904 h 1.8836 c 0.762,0 1.09037,-0.57148 1.09037,-1.03715 -0.0106,-0.508 -0.33897,-1.12189 -1.11156,-1.12189 z" />
  </g>
</svg>
